HIERARCHY
ROOT Hips
{
 OFFSET 0.000000 0.000000 0.000000
 CHANNELS 6 Xposition Yposition Zposition Yrotation Xrotation Zrotation
 JOINT Chest
 {
  OFFSET 0.000000 10.354800 0.006500
  CHANNELS 3 Yrotation Xrotation Zrotation
  JOINT Chest2
  {
   OFFSET 0.000000 10.435800 -0.013200
   CHANNELS 3 Yrotation Xrotation Zrotation
   JOINT Chest3
   {
    OFFSET 0.000000 10.393700 0.000000
    CHANNELS 3 Yrotation Xrotation Zrotation
    JOINT Chest4
    {
     OFFSET 0.000000 10.383100 0.000000
     CHANNELS 3 Yrotation Xrotation Zrotation
     JOINT Neck
     {
      OFFSET 0.000000 15.694000 0.000000
      CHANNELS 3 Yrotation Xrotation Zrotation
      JOINT Head
      {
       OFFSET 0.000000 9.711000 -0.028000
       CHANNELS 3 Yrotation Xrotation Zrotation
       End Site
       {
        OFFSET 0.000000 18.578700 -0.014800
       }
      }
     }
     JOINT RightCollar
     {
      OFFSET -3.157200 10.367500 0.000000
      CHANNELS 3 Yrotation Xrotation Zrotation
      JOINT RightShoulder
      {
       OFFSET -14.482500 0.000000 0.000000
       CHANNELS 3 Yrotation Xrotation Zrotation
       JOINT RightElbow
       {
        OFFSET 0.000000 -31.707800 0.000000
        CHANNELS 3 Yrotation Xrotation Zrotation
        JOINT RightWrist
        {
         OFFSET 0.000000 -25.659300 0.000000
         CHANNELS 3 Yrotation Xrotation Zrotation
         End Site
         {
          OFFSET 0.000000 -18.994300 0.000000
         }
        }
       }
      }
     }
     JOINT LeftCollar
     {
      OFFSET 3.157200 10.367500 0.000000
      CHANNELS 3 Yrotation Xrotation Zrotation
      JOINT LeftShoulder
      {
       OFFSET 14.482500 0.000000 0.000000
       CHANNELS 3 Yrotation Xrotation Zrotation
       JOINT LeftElbow
       {
        OFFSET 0.000000 -31.707800 0.000000
        CHANNELS 3 Yrotation Xrotation Zrotation
        JOINT LeftWrist
        {
         OFFSET 0.000000 -25.659300 0.000000
         CHANNELS 3 Yrotation Xrotation Zrotation
         End Site
         {
          OFFSET 0.000000 -18.994300 0.000000
         }
        }
       }
      }
     }
    }
   }
  }
 }
 JOINT RightHip
 {
  OFFSET -8.365600 -0.032100 -0.003200
  CHANNELS 3 Yrotation Xrotation Zrotation
  JOINT RightKnee
  {
   OFFSET 0.000000 -43.980000 0.003100
   CHANNELS 3 Yrotation Xrotation Zrotation
   JOINT RightAnkle
   {
    OFFSET 0.000000 -42.882800 0.005200
    CHANNELS 3 Yrotation Xrotation Zrotation
    JOINT RightToe
    {
     OFFSET 0.000000 -4.915500 10.826300
     CHANNELS 3 Yrotation Xrotation Zrotation
     End Site
     {
      OFFSET 0.000000 -1.517500 6.175900
     }
    }
   }
  }
 }
 JOINT LeftHip
 {
  OFFSET 8.365600 -0.032100 -0.003200
  CHANNELS 3 Yrotation Xrotation Zrotation
  JOINT LeftKnee
  {
   OFFSET 0.000000 -43.980000 0.003100
   CHANNELS 3 Yrotation Xrotation Zrotation
   JOINT LeftAnkle
   {
    OFFSET 0.000000 -42.882800 0.005200
    CHANNELS 3 Yrotation Xrotation Zrotation
    JOINT LeftToe
    {
     OFFSET 0.000000 -4.915500 10.826300
     CHANNELS 3 Yrotation Xrotation Zrotation
     End Site
     {
      OFFSET 0.000000 -1.517500 6.175900
     }
    }
   }
  }
 }
}
MOTION
Frames: 13
Frame Time: 0.008333
2.685879 126.216075 28.352239 173.006271 -16.014156 -5.064524 -1.546664 4.383949 3.773551 -0.048993 0.157644 0.140778 -0.092408 0.273559 0.243145 -1.456515 4.181451 3.614678 -2.568563 18.986028 -2.187558 -2.170907 -5.644943 -1.744824 0.082512 5.624753 -4.445316 12.375607 -17.154367 -12.341092 -111.617980 -53.004931 159.014864 -14.366482 2.668703 4.577954 -3.456518 7.307752 1.141279 23.984484 -30.069238 7.496593 151.425519 -64.304702 -157.960406 19.334515 -10.335813 9.330357 4.325929 -59.658852 0.138723 -167.221691 74.038499 -158.558805 -1.097569 -26.661589 -0.554057 0.000188 -0.006229 0.000085 -14.138430 -56.468877 16.003732 169.698762 73.296199 164.694410 -3.132947 -31.068319 1.109293 0.001256 0.000096 0.000570
2.683398 126.217201 28.353628 173.009325 -16.019189 -5.069680 -1.570033 4.381504 3.763980 -0.039909 0.165670 0.150816 -0.106179 0.273497 0.241524 -1.486569 4.189580 3.612166 -2.498134 19.023948 -2.205555 -2.099948 -5.594582 -1.768606 0.028440 5.534076 -4.446616 11.675599 -17.427228 -12.327635 -113.713782 -52.987770 160.247329 -14.079991 1.727409 3.083649 -3.488045 7.312111 1.154699 23.938794 -29.964547 7.614091 151.689849 -63.805264 -158.394203 19.339292 -10.216012 9.130584 4.315422 -59.653780 0.149033 -167.226657 74.044615 -158.563858 -1.101017 -26.664420 -0.560393 0.000800 -0.006907 0.000363 -14.133691 -56.469437 16.000122 169.680193 73.298789 164.679848 -3.137488 -31.061909 1.111679 0.000311 -0.000684 0.000141
2.681317 126.218565 28.354459 173.012808 -16.027571 -5.077686 -1.591551 4.377448 3.750192 -0.042988 0.170932 0.158452 -0.128334 0.259254 0.220020 -1.487465 4.212397 3.631313 -2.434045 19.073658 -2.217294 -2.032246 -5.530340 -1.781337 -0.041194 5.431859 -4.457068 10.989639 -17.704426 -12.293259 -115.697215 -52.927403 161.383199 -13.834426 0.771606 1.489903 -3.526269 7.317376 1.167475 23.887341 -29.891229 7.748786 151.844992 -63.241185 -158.740559 19.376760 -10.094466 8.930561 4.317179 -59.642679 0.152652 -167.225386 74.051159 -158.554253 -1.105183 -26.666014 -0.562768 0.002710 -0.005398 0.001230 -14.136831 -56.463224 16.003855 169.674450 73.303578 164.673155 -3.135927 -31.057105 1.112852 -0.000721 -0.000408 -0.000328
2.682184 126.221039 28.352279 173.024379 -16.053920 -5.102433 -1.616128 4.390303 3.746411 -0.046627 0.172408 0.160815 -0.126912 0.257879 0.216697 -1.530272 4.209687 3.609200 -2.346336 19.147986 -2.195834 -1.967581 -5.454988 -1.784618 -0.095691 5.334832 -4.454558 10.336678 -17.977150 -12.243875 -117.554608 -52.824879 162.417296 -13.647779 -0.186236 -0.190816 -3.521045 7.334063 1.202671 23.850372 -29.856096 7.874834 151.869799 -62.615432 -159.020215 19.442934 -9.983378 8.724889 4.283025 -59.610039 0.186789 -167.231383 74.062081 -158.552321 -1.106501 -26.664218 -0.564838 0.002224 -0.005829 0.001010 -14.158732 -56.434812 16.024921 169.675772 73.307407 164.674298 -3.131423 -31.053734 1.113383 -0.002653 -0.000249 -0.001205
2.679950 126.222110 28.352872 173.029621 -16.060172 -5.109671 -1.634631 4.383020 3.726109 -0.063540 0.155492 0.136116 -0.111966 0.274640 0.240127 -1.534861 4.217347 3.617045 -2.308076 19.210650 -2.197146 -1.908135 -5.374605 -1.780523 -0.194614 5.216614 -4.499477 9.724212 -18.243583 -12.184708 -119.222965 -52.671466 163.306134 -13.509805 -1.142575 -1.939025 -3.552338 7.324297 1.206688 23.857877 -29.859884 7.978747 151.770796 -61.927593 -159.249347 19.532925 -9.884501 8.515791 4.285688 -59.596094 0.181864 -167.244865 74.074256 -158.559609 -1.108242 -26.666069 -0.563260 0.001223 -0.002213 0.000555 -14.137592 -56.434001 16.011387 169.676751 73.310536 164.686486 -3.134263 -31.050490 1.118110 -0.001653 -0.000470 -0.000751
2.679874 126.223374 28.352392 173.032454 -16.071296 -5.125988 -1.642996 4.384891 3.722014 -0.062347 0.158803 0.142084 -0.117589 0.269406 0.227152 -1.560201 4.213068 3.605479 -2.247752 19.285247 -2.176201 -1.855644 -5.295933 -1.770116 -0.276150 5.107771 -4.548128 9.144838 -18.508175 -12.122860 -120.645424 -52.457548 164.022727 -13.422586 -2.096569 -3.728936 -3.557548 7.311282 1.223786 23.884323 -29.853808 8.041864 151.673926 -61.156717 -159.531191 19.647862 -9.802133 8.293533 4.269660 -59.578802 0.200438 -167.234794 74.087731 -158.544626 -1.107933 -26.662800 -0.563246 -0.000027 -0.001225 -0.000012 -14.147719 -56.421308 16.028413 169.692121 73.309919 164.701908 -3.135218 -31.052431 1.121554 -0.002890 -0.000213 -0.001312
2.679745 126.224325 28.351465 173.047328 -16.079698 -5.142807 -1.657238 4.391649 3.728152 -0.064235 0.155446 0.135740 -0.125677 0.269222 0.214467 -1.578118 4.203736 3.593817 -2.197630 19.358961 -2.152829 -1.808759 -5.224393 -1.754675 -0.360733 5.000341 -4.614559 8.587179 -18.772273 -12.060281 -121.814737 -52.190452 164.582881 -13.416001 -3.064911 -5.533362 -3.562057 7.281838 1.240506 23.928925 -29.932250 8.134949 151.363406 -60.356286 -159.635731 19.788737 -9.754767 8.050988 4.237693 -59.566051 0.222467 -167.211181 74.092718 -158.522822 -1.106568 -26.658887 -0.558482 -0.000556 -0.003429 -0.000253 -14.157567 -56.412130 16.035926 169.710111 73.308481 164.726066 -3.141716 -31.053962 1.127076 -0.002907 0.000472 -0.001320
2.679673 126.224776 28.350620 173.053687 -16.083662 -5.154797 -1.672802 4.391173 3.714575 -0.064723 0.155187 0.134998 -0.129061 0.273529 0.212431 -1.621994 4.197305 3.540541 -2.110176 19.424693 -2.086081 -1.766273 -5.162020 -1.735218 -0.405006 4.891880 -4.655097 8.043929 -19.040106 -11.997533 -122.741521 -51.886022 164.999336 -13.534278 -4.083227 -7.306511 -3.525859 7.236895 1.298812 23.958805 -30.038536 8.224280 151.018655 -59.504257 -159.723040 19.954435 -9.748257 7.796050 4.236916 -59.555943 0.218468 -167.221122 74.100527 -158.522854 -1.104256 -26.658691 -0.555405 -0.002275 -0.003624 -0.001033 -14.143040 -56.410393 16.031150 169.719954 73.307684 164.752586 -3.149945 -31.054283 1.132145 -0.000589 0.000190 -0.000267
2.679544 126.224701 28.350090 173.058559 -16.081043 -5.163153 -1.703893 4.392406 3.671888 -0.051326 0.153260 0.157896 -0.127180 0.274015 0.217695 -1.641106 4.196929 3.517786 -2.067762 19.472292 -2.056075 -1.728276 -5.109834 -1.713087 -0.471212 4.780373 -4.738803 7.510522 -19.315350 -11.942877 -123.434484 -51.553731 165.294785 -13.814378 -5.189322 -9.019403 -3.513207 7.171401 1.323307 23.963231 -30.132059 8.302854 150.739164 -58.579794 -159.881307 20.146387 -9.772624 7.529056 4.239500 -59.551018 0.212756 -167.221770 74.107600 -158.515375 -1.100401 -26.661369 -0.552916 -0.002545 -0.002659 -0.001155 -14.153747 -56.411023 16.044693 169.712778 73.304310 164.741029 -3.162606 -31.054720 1.142455 -0.003433 -0.000359 -0.001558
2.679998 126.224430 28.349051 173.060192 -16.077497 -5.170269 -1.717131 4.394226 3.655450 -0.054510 0.149742 0.155435 -0.115770 0.273461 0.235904 -1.668935 4.198184 3.481754 -2.029718 19.509999 -2.026892 -1.694640 -5.068551 -1.690838 -0.527453 4.672897 -4.822338 6.987877 -19.595545 -11.909657 -123.896606 -51.191483 165.490802 -14.253835 -6.410073 -10.678882 -3.492419 7.094604 1.349179 23.965495 -30.233322 8.373054 150.491201 -57.608645 -160.083219 20.378884 -9.820958 7.217411 4.245081 -59.549412 0.212290 -167.227979 74.111418 -158.517473 -1.101947 -26.666088 -0.548797 -0.003306 -0.003009 -0.001501 -14.149300 -56.413100 16.055247 169.736969 73.301069 164.765231 -3.168447 -31.056223 1.147438 -0.003443 -0.000832 -0.001563
2.681004 126.223566 28.349251 173.072361 -16.062318 -5.181072 -1.735100 4.383714 3.652105 -0.060102 0.150580 0.143365 -0.116590 0.273063 0.234326 -1.679530 4.197369 3.475236 -2.006990 19.538295 -2.010349 -1.673129 -5.062265 -1.674616 -0.580656 4.568503 -4.909602 6.473753 -19.879337 -11.905902 -124.103689 -50.786953 165.572851 -14.800954 -7.744840 -12.292011 -3.479736 7.006015 1.367720 23.988148 -30.338906 8.427788 150.266548 -56.604448 -160.329124 20.659788 -9.891103 6.831792 4.226535 -59.558421 0.232212 -167.218310 74.114150 -158.514327 -1.112525 -26.672680 -0.542071 -0.003715 -0.002950 -0.001687 -14.157293 -56.422029 16.069828 169.772178 73.301882 164.804711 -3.163981 -31.062783 1.143792 -0.000534 0.002087 -0.000242
2.681558 126.222693 28.348318 173.077965 -16.050385 -5.183836 -1.747303 4.376618 3.642625 -0.066841 0.154189 0.132019 -0.117678 0.272326 0.232975 -1.672125 4.192060 3.488651 -2.010817 19.557928 -2.016279 -1.649428 -5.051868 -1.659156 -0.642429 4.466085 -5.004365 5.963990 -20.170385 -11.933128 -124.064197 -50.335283 165.542535 -15.395686 -9.155856 -13.850139 -3.488636 6.907000 1.371436 24.052055 -30.451542 8.460055 150.045267 -55.587310 -160.613031 20.973801 -9.981436 6.387185 4.219309 -59.566608 0.243841 -167.202557 74.112838 -158.504224 -1.120275 -26.678519 -0.539391 -0.002776 -0.003616 -0.001260 -14.165851 -56.429715 16.079085 169.766734 73.296912 164.797253 -3.173893 -31.065986 1.144460 -0.002557 0.001569 -0.001161
2.681931 126.221632 28.347244 173.081637 -16.036483 -5.182173 -1.775898 4.374410 3.605989 -0.054346 0.150182 0.145666 -0.118666 0.271602 0.231753 -1.689802 4.187299 3.473984 -1.975937 19.569147 -1.990260 -1.629884 -5.017623 -1.650774 -0.673590 4.366037 -5.061590 5.460714 -20.472086 -11.989505 -123.859135 -49.851442 165.438784 -15.995880 -10.587773 -15.322769 -3.462497 6.859436 1.402438 24.162954 -30.623495 8.445173 149.851144 -54.573409 -160.946303 21.303392 -10.096298 5.916108 4.220531 -59.577580 0.243818 -167.194312 74.108105 -158.500346 -1.123895 -26.685035 -0.534898 -0.003667 -0.004402 -0.001665 -14.168575 -56.439593 16.082610 169.768688 73.298513 164.798482 -3.178620 -31.065781 1.143987 -0.003355 0.000674 -0.001523
